<svg width="14" height="14" viewBox="0 0 14 14" fill="none" xmlns="http://www.w3.org/2000/svg">
<path d="M10.5 7C10.5 8.93298 8.93298 10.5 7 10.5C5.06701 10.5 3.5 8.93298 3.5 7C3.5 5.06701 5.06701 3.5 7 3.5C8.93298 3.5 10.5 5.06701 10.5 7Z" fill="url(#paint0_linear_11_48)"/>
<path fill-rule="evenodd" clip-rule="evenodd" d="M7 12.6C10.0928 12.6 12.6 10.0928 12.6 7C12.6 3.9072 10.0928 1.4 7 1.4C3.9072 1.4 1.4 3.9072 1.4 7C1.4 10.0928 3.9072 12.6 7 12.6ZM7 14C10.866 14 14 10.866 14 7C14 3.134 10.866 0 7 0C3.134 0 0 3.134 0 7C0 10.866 3.134 14 7 14Z" fill="url(#paint1_linear_11_48)"/>
<defs>
<linearGradient id="paint0_linear_11_48" x1="7.5" y1="10" x2="8.25" y2="4.25" gradientUnits="userSpaceOnUse">
<stop offset="0.0261755" stop-color="#6C26C2" stop-opacity="0.99"/>
<stop offset="1" stop-color="#9433EE"/>
</linearGradient>
<linearGradient id="paint1_linear_11_48" x1="8" y1="13" x2="9.5" y2="1.5" gradientUnits="userSpaceOnUse">
<stop offset="0.0261755" stop-color="#6C26C2" stop-opacity="0.99"/>
<stop offset="1" stop-color="#9433EE"/>
</linearGradient>
</defs>
</svg>
