<svg width="150" height="104" viewBox="0 0 150 104" fill="none" xmlns="http://www.w3.org/2000/svg">
<rect width="150" height="104" rx="13" fill="url(#paint0_radial_13_110)"/>
<rect x="14" y="11" width="123" height="81" rx="10" fill="#FDFDFD"/>
<line x1="14" y1="30.5" x2="137" y2="30.5" stroke="#EBEAEB"/>
<circle cx="25" cy="19" r="2" fill="#FA1212"/>
<circle cx="31" cy="19" r="2" fill="#C1C1C1"/>
<circle cx="37" cy="19" r="2" fill="#36DF51"/>
<path d="M56 45C56 43.8954 56.8954 43 58 43H94C95.1046 43 96 43.8954 96 45V45C96 46.1046 95.1046 47 94 47H58C56.8954 47 56 46.1046 56 45V45Z" fill="#EBEAEB"/>
<path d="M44 55C44 53.8954 44.8954 53 46 53H106C107.105 53 108 53.8954 108 55V55C108 56.1046 107.105 57 106 57H46C44.8954 57 44 56.1046 44 55V55Z" fill="#EBEAEB"/>
<path d="M61 66C61 64.8954 61.8954 64 63 64H89C90.1046 64 91 64.8954 91 66V66C91 67.1046 90.1046 68 89 68H63C61.8954 68 61 67.1046 61 66V66Z" fill="#EBEAEB"/>
<defs>
<radialGradient id="paint0_radial_13_110" cx="0" cy="0" r="1" gradientUnits="userSpaceOnUse" gradientTransform="translate(75 52) rotate(90) scale(52 75)">
<stop stop-color="#DD94BA"/>
<stop offset="1" stop-color="#CB93CE"/>
</radialGradient>
</defs>
</svg>
