<svg width="86" height="14" viewBox="0 0 86 14" fill="none" xmlns="http://www.w3.org/2000/svg">
<path d="M10.5 7C10.5 8.93298 8.93298 10.5 7 10.5C5.06701 10.5 3.5 8.93298 3.5 7C3.5 5.06701 5.06701 3.5 7 3.5C8.93298 3.5 10.5 5.06701 10.5 7Z" fill="url(#paint0_linear_10_37)"/>
<path fill-rule="evenodd" clip-rule="evenodd" d="M7 12.6C10.0928 12.6 12.6 10.0928 12.6 7C12.6 3.9072 10.0928 1.4 7 1.4C3.9072 1.4 1.4 3.9072 1.4 7C1.4 10.0928 3.9072 12.6 7 12.6ZM7 14C10.866 14 14 10.866 14 7C14 3.134 10.866 0 7 0C3.134 0 0 3.134 0 7C0 10.866 3.134 14 7 14Z" fill="url(#paint1_linear_10_37)"/>
<path d="M22.7358 5.78125C22.7093 5.53314 22.5975 5.33996 22.4006 5.2017C22.2055 5.06345 21.9517 4.99432 21.6392 4.99432C21.4195 4.99432 21.2311 5.02746 21.0739 5.09375C20.9167 5.16004 20.7964 5.25 20.7131 5.36364C20.6297 5.47727 20.5871 5.60701 20.5852 5.75284C20.5852 5.87405 20.6127 5.97917 20.6676 6.06818C20.7244 6.1572 20.8011 6.23295 20.8977 6.29545C20.9943 6.35606 21.1013 6.4072 21.2188 6.44886C21.3362 6.49053 21.4545 6.52557 21.5739 6.55398L22.1193 6.69034C22.339 6.74148 22.5502 6.81061 22.7528 6.89773C22.9574 6.98485 23.1402 7.0947 23.3011 7.22727C23.464 7.35985 23.5928 7.51989 23.6875 7.70739C23.7822 7.89489 23.8295 8.11458 23.8295 8.36648C23.8295 8.70739 23.7424 9.00758 23.5682 9.26705C23.3939 9.52462 23.142 9.72633 22.8125 9.87216C22.4848 10.0161 22.0881 10.0881 21.6222 10.0881C21.1695 10.0881 20.7765 10.018 20.4432 9.87784C20.1117 9.73769 19.8523 9.53314 19.6648 9.2642C19.4792 8.99527 19.3788 8.66761 19.3636 8.28125H20.4006C20.4157 8.4839 20.4782 8.65246 20.5881 8.78693C20.6979 8.9214 20.8409 9.02178 21.017 9.08807C21.1951 9.15436 21.3939 9.1875 21.6136 9.1875C21.8428 9.1875 22.0436 9.15341 22.2159 9.08523C22.3902 9.01515 22.5265 8.91856 22.625 8.79545C22.7235 8.67045 22.7737 8.52462 22.7756 8.35795C22.7737 8.20644 22.7292 8.08144 22.642 7.98295C22.5549 7.88258 22.4328 7.79924 22.2756 7.73295C22.1203 7.66477 21.9384 7.60417 21.7301 7.55114L21.0682 7.38068C20.589 7.25758 20.2102 7.07102 19.9318 6.82102C19.6553 6.56913 19.517 6.23485 19.517 5.81818C19.517 5.47538 19.6098 5.17519 19.7955 4.91761C19.983 4.66004 20.2377 4.46023 20.5597 4.31818C20.8816 4.17424 21.2462 4.10227 21.6534 4.10227C22.0663 4.10227 22.428 4.17424 22.7386 4.31818C23.0511 4.46023 23.2964 4.65814 23.4744 4.91193C23.6525 5.16383 23.7443 5.4536 23.75 5.78125H22.7358ZM26.6271 10.0852C26.1915 10.0852 25.8175 9.98958 25.505 9.7983C25.1944 9.60701 24.9548 9.3428 24.7862 9.00568C24.6196 8.66667 24.5362 8.27652 24.5362 7.83523C24.5362 7.39205 24.6214 7.00095 24.7919 6.66193C24.9624 6.32102 25.2029 6.05587 25.5135 5.86648C25.826 5.67519 26.1953 5.57955 26.6214 5.57955C26.9756 5.57955 27.2891 5.64489 27.5618 5.77557C27.8364 5.90436 28.0552 6.08712 28.218 6.32386C28.3809 6.55871 28.4737 6.83333 28.4964 7.14773H27.5135C27.4737 6.9375 27.379 6.76231 27.2294 6.62216C27.0817 6.48011 26.8838 6.40909 26.6357 6.40909C26.4254 6.40909 26.2408 6.46591 26.0817 6.57955C25.9226 6.69129 25.7985 6.85227 25.7095 7.0625C25.6224 7.27273 25.5788 7.52462 25.5788 7.81818C25.5788 8.11553 25.6224 8.37121 25.7095 8.58523C25.7966 8.79735 25.9188 8.96117 26.076 9.0767C26.2351 9.19034 26.4216 9.24716 26.6357 9.24716C26.7872 9.24716 26.9226 9.21875 27.0419 9.16193C27.1631 9.10322 27.2644 9.01894 27.3459 8.90909C27.4273 8.79924 27.4832 8.66572 27.5135 8.50852H28.4964C28.4718 8.81723 28.3809 9.09091 28.2237 9.32955C28.0665 9.56629 27.8525 9.75189 27.5817 9.88636C27.3108 10.0189 26.9927 10.0852 26.6271 10.0852ZM29.3409 10V5.63636H30.3381V6.36364H30.3835C30.4631 6.11174 30.5994 5.91761 30.7926 5.78125C30.9877 5.64299 31.2102 5.57386 31.4602 5.57386C31.517 5.57386 31.5805 5.5767 31.6506 5.58239C31.7225 5.58617 31.7822 5.5928 31.8295 5.60227V6.5483C31.786 6.53314 31.7169 6.51989 31.6222 6.50852C31.5294 6.49527 31.4394 6.48864 31.3523 6.48864C31.1648 6.48864 30.9962 6.52936 30.8466 6.6108C30.6989 6.69034 30.5824 6.80114 30.4972 6.94318C30.4119 7.08523 30.3693 7.24905 30.3693 7.43466V10H29.3409ZM34.2649 10.0852C33.8274 10.0852 33.4496 9.99432 33.1314 9.8125C32.8151 9.62879 32.5717 9.36932 32.4013 9.03409C32.2308 8.69697 32.1456 8.30019 32.1456 7.84375C32.1456 7.39489 32.2308 7.00095 32.4013 6.66193C32.5736 6.32102 32.8142 6.05587 33.1229 5.86648C33.4316 5.67519 33.7943 5.57955 34.2109 5.57955C34.4799 5.57955 34.7337 5.62311 34.9723 5.71023C35.2128 5.79545 35.425 5.92803 35.6087 6.10795C35.7943 6.28788 35.9401 6.51705 36.0462 6.79545C36.1522 7.07197 36.2053 7.40152 36.2053 7.78409V8.09943H32.6286V7.40625H35.2195C35.2176 7.20928 35.175 7.03409 35.0916 6.88068C35.0083 6.72538 34.8918 6.60322 34.7422 6.5142C34.5945 6.42519 34.4221 6.38068 34.2251 6.38068C34.0149 6.38068 33.8303 6.43182 33.6712 6.53409C33.5121 6.63447 33.388 6.76705 33.299 6.93182C33.2119 7.0947 33.1674 7.27367 33.1655 7.46875V8.07386C33.1655 8.32765 33.2119 8.54545 33.3047 8.72727C33.3975 8.9072 33.5272 9.04545 33.6939 9.14205C33.8606 9.23674 34.0556 9.28409 34.2791 9.28409C34.4287 9.28409 34.5642 9.26326 34.6854 9.22159C34.8066 9.17803 34.9117 9.11458 35.0007 9.03125C35.0897 8.94792 35.157 8.8447 35.2024 8.72159L36.1626 8.82955C36.102 9.08333 35.9865 9.30492 35.8161 9.49432C35.6475 9.68182 35.4316 9.82765 35.1683 9.93182C34.9051 10.0341 34.6039 10.0852 34.2649 10.0852ZM39.0071 10.0852C38.5696 10.0852 38.1918 9.99432 37.8736 9.8125C37.5573 9.62879 37.3139 9.36932 37.1435 9.03409C36.973 8.69697 36.8878 8.30019 36.8878 7.84375C36.8878 7.39489 36.973 7.00095 37.1435 6.66193C37.3158 6.32102 37.5563 6.05587 37.8651 5.86648C38.1738 5.67519 38.5365 5.57955 38.9531 5.57955C39.2221 5.57955 39.4759 5.62311 39.7145 5.71023C39.955 5.79545 40.1671 5.92803 40.3509 6.10795C40.5365 6.28788 40.6823 6.51705 40.7884 6.79545C40.8944 7.07197 40.9474 7.40152 40.9474 7.78409V8.09943H37.3707V7.40625H39.9616C39.9598 7.20928 39.9171 7.03409 39.8338 6.88068C39.7505 6.72538 39.634 6.60322 39.4844 6.5142C39.3366 6.42519 39.1643 6.38068 38.9673 6.38068C38.7571 6.38068 38.5724 6.43182 38.4134 6.53409C38.2543 6.63447 38.1302 6.76705 38.0412 6.93182C37.9541 7.0947 37.9096 7.27367 37.9077 7.46875V8.07386C37.9077 8.32765 37.9541 8.54545 38.0469 8.72727C38.1397 8.9072 38.2694 9.04545 38.4361 9.14205C38.6027 9.23674 38.7978 9.28409 39.0213 9.28409C39.1709 9.28409 39.3063 9.26326 39.4276 9.22159C39.5488 9.17803 39.6539 9.11458 39.7429 9.03125C39.8319 8.94792 39.8991 8.8447 39.9446 8.72159L40.9048 8.82955C40.8442 9.08333 40.7287 9.30492 40.5582 9.49432C40.3897 9.68182 40.1738 9.82765 39.9105 9.93182C39.6473 10.0341 39.3461 10.0852 39.0071 10.0852ZM42.8459 7.44318V10H41.8175V5.63636H42.8004V6.37784H42.8516C42.9519 6.13352 43.112 5.93939 43.3317 5.79545C43.5533 5.65152 43.8269 5.57955 44.1527 5.57955C44.4538 5.57955 44.7161 5.64394 44.9396 5.77273C45.165 5.90152 45.3393 6.08807 45.4624 6.33239C45.5874 6.5767 45.6489 6.87311 45.647 7.22159V10H44.6186V7.38068C44.6186 7.08902 44.5429 6.8608 44.3913 6.69602C44.2417 6.53125 44.0343 6.44886 43.7692 6.44886C43.5893 6.44886 43.4292 6.48864 43.2891 6.56818C43.1508 6.64583 43.0419 6.75852 42.9624 6.90625C42.8847 7.05398 42.8459 7.23295 42.8459 7.44318ZM48.7223 10V4.18182H50.9041C51.3511 4.18182 51.7261 4.25947 52.0291 4.41477C52.334 4.57008 52.5642 4.78788 52.7195 5.06818C52.8767 5.34659 52.9553 5.6714 52.9553 6.04261C52.9553 6.41572 52.8757 6.73958 52.7166 7.0142C52.5594 7.28693 52.3274 7.49811 52.0206 7.64773C51.7138 7.79545 51.3369 7.86932 50.8899 7.86932H49.3359V6.99432H50.7479C51.0092 6.99432 51.2232 6.95833 51.3899 6.88636C51.5566 6.8125 51.6797 6.70549 51.7592 6.56534C51.8407 6.4233 51.8814 6.24905 51.8814 6.04261C51.8814 5.83617 51.8407 5.66004 51.7592 5.5142C51.6778 5.36648 51.5537 5.25473 51.3871 5.17898C51.2204 5.10133 51.0054 5.0625 50.7422 5.0625H49.7763V10H48.7223ZM51.728 7.36364L53.1683 10H51.9922L50.5774 7.36364H51.728ZM55.7493 10.0852C55.3118 10.0852 54.9339 9.99432 54.6158 9.8125C54.2995 9.62879 54.0561 9.36932 53.8857 9.03409C53.7152 8.69697 53.63 8.30019 53.63 7.84375C53.63 7.39489 53.7152 7.00095 53.8857 6.66193C54.058 6.32102 54.2985 6.05587 54.6072 5.86648C54.916 5.67519 55.2786 5.57955 55.6953 5.57955C55.9643 5.57955 56.218 5.62311 56.4567 5.71023C56.6972 5.79545 56.9093 5.92803 57.093 6.10795C57.2786 6.28788 57.4245 6.51705 57.5305 6.79545C57.6366 7.07197 57.6896 7.40152 57.6896 7.78409V8.09943H54.1129V7.40625H56.7038C56.7019 7.20928 56.6593 7.03409 56.576 6.88068C56.4927 6.72538 56.3762 6.60322 56.2266 6.5142C56.0788 6.42519 55.9065 6.38068 55.7095 6.38068C55.4993 6.38068 55.3146 6.43182 55.1555 6.53409C54.9964 6.63447 54.8724 6.76705 54.7834 6.93182C54.6963 7.0947 54.6518 7.27367 54.6499 7.46875V8.07386C54.6499 8.32765 54.6963 8.54545 54.7891 8.72727C54.8819 8.9072 55.0116 9.04545 55.1783 9.14205C55.3449 9.23674 55.54 9.28409 55.7635 9.28409C55.9131 9.28409 56.0485 9.26326 56.1697 9.22159C56.291 9.17803 56.3961 9.11458 56.4851 9.03125C56.5741 8.94792 56.6413 8.8447 56.6868 8.72159L57.647 8.82955C57.5864 9.08333 57.4709 9.30492 57.3004 9.49432C57.1319 9.68182 56.916 9.82765 56.6527 9.93182C56.3894 10.0341 56.0883 10.0852 55.7493 10.0852ZM60.4631 10.0852C60.0275 10.0852 59.6534 9.98958 59.3409 9.7983C59.0303 9.60701 58.7907 9.3428 58.6222 9.00568C58.4555 8.66667 58.3722 8.27652 58.3722 7.83523C58.3722 7.39205 58.4574 7.00095 58.6278 6.66193C58.7983 6.32102 59.0388 6.05587 59.3494 5.86648C59.6619 5.67519 60.0313 5.57955 60.4574 5.57955C60.8116 5.57955 61.125 5.64489 61.3977 5.77557C61.6723 5.90436 61.8911 6.08712 62.054 6.32386C62.2169 6.55871 62.3097 6.83333 62.3324 7.14773H61.3494C61.3097 6.9375 61.215 6.76231 61.0653 6.62216C60.9176 6.48011 60.7197 6.40909 60.4716 6.40909C60.2614 6.40909 60.0767 6.46591 59.9176 6.57955C59.7585 6.69129 59.6345 6.85227 59.5455 7.0625C59.4583 7.27273 59.4148 7.52462 59.4148 7.81818C59.4148 8.11553 59.4583 8.37121 59.5455 8.58523C59.6326 8.79735 59.7547 8.96117 59.9119 9.0767C60.071 9.19034 60.2576 9.24716 60.4716 9.24716C60.6231 9.24716 60.7585 9.21875 60.8778 9.16193C60.9991 9.10322 61.1004 9.01894 61.1818 8.90909C61.2633 8.79924 61.3191 8.66572 61.3494 8.50852H62.3324C62.3078 8.81723 62.2169 9.09091 62.0597 9.32955C61.9025 9.56629 61.6884 9.75189 61.4176 9.88636C61.1468 10.0189 60.8286 10.0852 60.4631 10.0852ZM65.0803 10.0852C64.6541 10.0852 64.2848 9.99148 63.9723 9.80398C63.6598 9.61648 63.4174 9.35417 63.245 9.01705C63.0746 8.67992 62.9893 8.28598 62.9893 7.83523C62.9893 7.38447 63.0746 6.98958 63.245 6.65057C63.4174 6.31155 63.6598 6.0483 63.9723 5.8608C64.2848 5.6733 64.6541 5.57955 65.0803 5.57955C65.5064 5.57955 65.8757 5.6733 66.1882 5.8608C66.5007 6.0483 66.7422 6.31155 66.9126 6.65057C67.085 6.98958 67.1712 7.38447 67.1712 7.83523C67.1712 8.28598 67.085 8.67992 66.9126 9.01705C66.7422 9.35417 66.5007 9.61648 66.1882 9.80398C65.8757 9.99148 65.5064 10.0852 65.0803 10.0852ZM65.0859 9.26136C65.317 9.26136 65.5102 9.19792 65.6655 9.07102C65.8208 8.94223 65.9363 8.76989 66.0121 8.55398C66.0897 8.33807 66.1286 8.09754 66.1286 7.83239C66.1286 7.56534 66.0897 7.32386 66.0121 7.10795C65.9363 6.89015 65.8208 6.71686 65.6655 6.58807C65.5102 6.45928 65.317 6.39489 65.0859 6.39489C64.8492 6.39489 64.6522 6.45928 64.495 6.58807C64.3397 6.71686 64.2232 6.89015 64.1456 7.10795C64.0698 7.32386 64.032 7.56534 64.032 7.83239C64.032 8.09754 64.0698 8.33807 64.1456 8.55398C64.2232 8.76989 64.3397 8.94223 64.495 9.07102C64.6522 9.19792 64.8492 9.26136 65.0859 9.26136ZM68.044 10V5.63636H69.0412V6.36364H69.0866C69.1662 6.11174 69.3026 5.91761 69.4957 5.78125C69.6908 5.64299 69.9134 5.57386 70.1634 5.57386C70.2202 5.57386 70.2836 5.5767 70.3537 5.58239C70.4257 5.58617 70.4853 5.5928 70.5327 5.60227V6.5483C70.4891 6.53314 70.42 6.51989 70.3253 6.50852C70.2325 6.49527 70.1425 6.48864 70.0554 6.48864C69.8679 6.48864 69.6993 6.52936 69.5497 6.6108C69.402 6.69034 69.2855 6.80114 69.2003 6.94318C69.1151 7.08523 69.0724 7.24905 69.0724 7.43466V10H68.044ZM72.6555 10.0767C72.3127 10.0767 72.0059 9.98864 71.7351 9.8125C71.4643 9.63636 71.2502 9.38068 71.093 9.04545C70.9358 8.71023 70.8572 8.30303 70.8572 7.82386C70.8572 7.33902 70.9368 6.92992 71.0959 6.59659C71.2569 6.26136 71.4737 6.00852 71.7464 5.83807C72.0192 5.66572 72.3232 5.57955 72.6584 5.57955C72.9141 5.57955 73.1243 5.62311 73.2891 5.71023C73.4538 5.79545 73.5845 5.89867 73.6811 6.01989C73.7777 6.1392 73.8525 6.25189 73.9055 6.35795H73.9482V4.18182H74.9794V10H73.968V9.3125H73.9055C73.8525 9.41856 73.7758 9.53125 73.6754 9.65057C73.575 9.76799 73.4425 9.86837 73.2777 9.9517C73.1129 10.035 72.9055 10.0767 72.6555 10.0767ZM72.9425 9.23295C73.1603 9.23295 73.3459 9.17424 73.4993 9.05682C73.6527 8.9375 73.7692 8.77178 73.8487 8.55966C73.9283 8.34754 73.968 8.10038 73.968 7.81818C73.968 7.53598 73.9283 7.29072 73.8487 7.08239C73.7711 6.87405 73.6555 6.71212 73.5021 6.59659C73.3506 6.48106 73.1641 6.4233 72.9425 6.4233C72.7133 6.4233 72.522 6.48295 72.3686 6.60227C72.2152 6.72159 72.0997 6.88636 72.022 7.09659C71.9444 7.30682 71.9055 7.54735 71.9055 7.81818C71.9055 8.09091 71.9444 8.33428 72.022 8.5483C72.1016 8.76042 72.218 8.92803 72.3714 9.05114C72.5268 9.17235 72.7171 9.23295 72.9425 9.23295ZM76.0753 10V5.63636H77.1037V10H76.0753ZM76.5923 5.01705C76.4295 5.01705 76.2893 4.96307 76.1719 4.85511C76.0545 4.74526 75.9957 4.61364 75.9957 4.46023C75.9957 4.30492 76.0545 4.1733 76.1719 4.06534C76.2893 3.95549 76.4295 3.90057 76.5923 3.90057C76.7571 3.90057 76.8973 3.95549 77.0128 4.06534C77.1302 4.1733 77.1889 4.30492 77.1889 4.46023C77.1889 4.61364 77.1302 4.74526 77.0128 4.85511C76.8973 4.96307 76.7571 5.01705 76.5923 5.01705ZM80.3714 5.63636V6.43182H77.7919V5.63636H80.3714ZM78.4368 10V5.22443C78.4368 4.93087 78.4974 4.68655 78.6186 4.49148C78.7417 4.2964 78.9065 4.15057 79.1129 4.05398C79.3194 3.95739 79.5485 3.90909 79.8004 3.90909C79.9785 3.90909 80.1366 3.9233 80.2749 3.9517C80.4131 3.98011 80.5154 4.00568 80.5817 4.02841L80.3771 4.82386C80.3336 4.81061 80.2786 4.79735 80.2124 4.78409C80.1461 4.76894 80.0722 4.76136 79.9908 4.76136C79.7995 4.76136 79.6641 4.80777 79.5845 4.90057C79.5069 4.99148 79.468 5.12216 79.468 5.29261V10H78.4368ZM81.8161 11.6364C81.6759 11.6364 81.5462 11.625 81.4268 11.6023C81.3094 11.5814 81.2157 11.5568 81.1456 11.5284L81.3842 10.7273C81.5339 10.7708 81.6674 10.7917 81.7848 10.7898C81.9022 10.7879 82.0054 10.7509 82.0945 10.679C82.1854 10.6089 82.2621 10.4915 82.3246 10.3267L82.4126 10.0909L80.8303 5.63636H81.9212L82.9268 8.93182H82.9723L83.9808 5.63636H85.0746L83.3274 10.5284C83.246 10.7595 83.138 10.9574 83.0036 11.1222C82.8691 11.2888 82.7043 11.4157 82.5092 11.5028C82.3161 11.5919 82.085 11.6364 81.8161 11.6364Z" fill="white"/>
<defs>
<linearGradient id="paint0_linear_10_37" x1="7.5" y1="10" x2="8.25" y2="4.25" gradientUnits="userSpaceOnUse">
<stop offset="0.0261755" stop-color="#6C26C2" stop-opacity="0.99"/>
<stop offset="1" stop-color="#9433EE"/>
</linearGradient>
<linearGradient id="paint1_linear_10_37" x1="8" y1="13" x2="9.5" y2="1.5" gradientUnits="userSpaceOnUse">
<stop offset="0.0261755" stop-color="#6C26C2" stop-opacity="0.99"/>
<stop offset="1" stop-color="#9433EE"/>
</linearGradient>
</defs>
</svg>
